{
  "accessors": [
    {
      "bufferView": 2,
      "componentType": 5126,
      "count": 39079,
      "max": [
        24.03022003173828,
        7.8592848777771,
        11.936220169067383
      ],
      "min": [
        -24.03022003173828,
        -4.72327995300293,
        -13.918789863586426
      ],
      "type": "VEC3"
    },
    {
      "bufferView": 2,
      "byteOffset": 468948,
      "componentType": 5126,
      "count": 39079,
      "max": [
        1.0,
        1.0,
        1.0
      ],
      "min": [
        -1.0,
        -1.0,
        -1.0
      ],
      "type": "VEC3"
    },
    {
      "bufferView": 3,
      "componentType": 5126,
      "count": 39079,
      "max": [
        1.0,
        1.0,
        1.0,
        1.0
      ],
      "min": [
        -1.0,
        -1.0,
        -1.0,
        -1.0
      ],
      "type": "VEC4"
    },
    {
      "bufferView": 1,
      "componentType": 5126,
      "count": 39079,
      "max": [
        0.9969409704208374,
        0.9977779984474182
      ],
      "min": [
        0.0,
        0.0
      ],
      "type": "VEC2"
    },
    {
      "bufferView": 0,
      "componentType": 5125,
      "count": 78882,
      "type": "SCALAR"
    },
    {
      "bufferView": 2,
      "byteOffset": 937896,
      "componentType": 5126,
      "count": 2505,
      "max": [
        24.33064079284668,
        19.044919967651367,
        11.969169616699219
      ],
      "min": [
        -24.33064079284668,
        9.441754341125488,
        -11.969169616699219
      ],
      "type": "VEC3"
    },
    {
      "bufferView": 2,
      "byteOffset": 967956,
      "componentType": 5126,
      "count": 2505,
      "max": [
        1.0,
        1.0,
        1.0
      ],
      "min": [
        -1.0,
        -1.0,
        -1.0
      ],
      "type": "VEC3"
    },
    {
      "bufferView": 3,
      "byteOffset": 625264,
      "componentType": 5126,
      "count": 2505,
      "max": [
        1.0,
        0.99884432554245,
        0.9999968409538269,
        1.0
      ],
      "min": [
        -0.9710385203361511,
        -0.9972327947616577,
        -0.9999969601631165,
        -1.0
      ],
      "type": "VEC4"
    },
    {
      "bufferView": 1,
      "byteOffset": 312632,
      "componentType": 5126,
      "count": 2505,
      "max": [
        0.9999979734420776,
        0.7169600129127502
      ],
      "min": [
        0.0,
        0.0
      ],
      "type": "VEC2"
    },
    {
      "bufferView": 0,
      "byteOffset": 315528,
      "componentType": 5125,
      "count": 4830,
      "type": "SCALAR"
    },
    {
      "bufferView": 2,
      "byteOffset": 998016,
      "componentType": 5126,
      "count": 1184,
      "max": [
        23.889549255371094,
        2.303546905517578,
        11.189840316772461
      ],
      "min": [
        -23.889549255371094,
        -5.942473888397217,
        -11.273050308227539
      ],
      "type": "VEC3"
    },
    {
      "bufferView": 2,
      "byteOffset": 1012224,
      "componentType": 5126,
      "count": 1184,
      "max": [
        1.0,
        1.0,
        1.0
      ],
      "min": [
        -1.0,
        -1.0,
        -1.0
      ],
      "type": "VEC3"
    },
    {
      "bufferView": 3,
      "byteOffset": 665344,
      "componentType": 5126,
      "count": 1184,
      "max": [
        0.9999986290931702,
        0.9235723614692688,
        0.9999970197677612,
        1.0
      ],
      "min": [
        -0.9989938735961914,
        -0.9991823434829712,
        -0.9974377155303955,
        -1.0
      ],
      "type": "VEC4"
    },
    {
      "bufferView": 1,
      "byteOffset": 332672,
      "componentType": 5126,
      "count": 1184,
      "max": [
        0.998445987701416,
        0.9179930090904236
      ],
      "min": [
        0.0,
        0.0
      ],
      "type": "VEC2"
    },
    {
      "bufferView": 0,
      "byteOffset": 334848,
      "componentType": 5125,
      "count": 3588,
      "type": "SCALAR"
    },
    {
      "bufferView": 2,
      "byteOffset": 1026432,
      "componentType": 5126,
      "count": 2690,
      "max": [
        21.44597053527832,
        9.438353538513184,
        9.16474437713623
      ],
      "min": [
        -21.44597053527832,
        -4.740237236022949,
        -9.247963905334473
      ],
      "type": "VEC3"
    },
    {
      "bufferView": 2,
      "byteOffset": 1058712,
      "componentType": 5126,
      "count": 2690,
      "max": [
        1.0,
        1.0,
        1.0
      ],
      "min": [
        -1.0,
        -1.0,
        -1.0
      ],
      "type": "VEC3"
    },
    {
      "bufferView": 3,
      "byteOffset": 684288,
      "componentType": 5126,
      "count": 2690,
      "max": [
        0.9999673366546631,
        0.9999996423721313,
        1.0,
        1.0
      ],
      "min": [
        -0.999999463558197,
        -0.9999587535858154,
        -0.9999977946281433,
        -1.0
      ],
      "type": "VEC4"
    },
    {
      "bufferView": 1,
      "byteOffset": 342144,
      "componentType": 5126,
      "count": 2690,
      "max": [
        1.9999979734420776,
        0.5406609773635864
      ],
      "min": [
        1.0007970333099365,
        1.9999999949504854e-06
      ],
      "type": "VEC2"
    },
    {
      "bufferView": 0,
      "byteOffset": 349200,
      "componentType": 5125,
      "count": 5922,
      "type": "SCALAR"
    },
    {
      "bufferView": 2,
      "byteOffset": 1090992,
      "componentType": 5126,
      "count": 2620,
      "max": [
        21.244169235229492,
        10.497690200805664,
        11.116809844970703
      ],
      "min": [
        -23.657899856567383,
        -5.964867115020752,
        -15.495329856872559
      ],
      "type": "VEC3"
    },
    {
      "bufferView": 2,
      "byteOffset": 1122432,
      "componentType": 5126,
      "count": 2620,
      "max": [
        1.0,
        1.0,
        1.0
      ],
      "min": [
        -1.0,
        -1.0,
        -1.0
      ],
      "type": "VEC3"
    },
    {
      "bufferView": 3,
      "byteOffset": 727328,
      "componentType": 5126,
      "count": 2620,
      "max": [
        0.9999993443489075,
        0.9999933242797852,
        0.999998927116394,
        1.0
      ],
      "min": [
        -1.0,
        -1.0,
        -0.9999875426292419,
        -1.0
      ],
      "type": "VEC4"
    },
    {
      "bufferView": 1,
      "byteOffset": 363664,
      "componentType": 5126,
      "count": 2620,
      "max": [
        1.9999979734420776,
        0.4663330018520355
      ],
      "min": [
        1.0000020265579224,
        1.1000000085914508e-05
      ],
      "type": "VEC2"
    },
    {
      "bufferView": 0,
      "byteOffset": 372888,
      "componentType": 5125,
      "count": 7038,
      "type": "SCALAR"
    },
    {
      "bufferView": 2,
      "byteOffset": 1153872,
      "componentType": 5126,
      "count": 3255,
      "max": [
        23.657899856567383,
        10.497690200805664,
        11.116809844970703
      ],
      "min": [
        -23.26742935180664,
        -5.964869976043701,
        -15.495329856872559
      ],
      "type": "VEC3"
    },
    {
      "bufferView": 2,
      "byteOffset": 1192932,
      "componentType": 5126,
      "count": 3255,
      "max": [
        1.0,
        1.0,
        1.0
      ],
      "min": [
        -1.0,
        -1.0,
        -1.0
      ],
      "type": "VEC3"
    },
    {
      "bufferView": 3,
      "byteOffset": 769248,
      "componentType": 5126,
      "count": 3255,
      "max": [
        0.9992141127586365,
        1.0,
        0.9999723434448242,
        1.0
      ],
      "min": [
        -1.0,
        -0.9999834299087524,
        -1.0,
        -1.0
      ],
      "type": "VEC4"
    },
    {
      "bufferView": 1,
      "byteOffset": 384624,
      "componentType": 5126,
      "count": 3255,
      "max": [
        0.9999979734420776,
        0.9653069972991943
      ],
      "min": [
        3.899999865097925e-05,
        1.9999999949504854e-06
      ],
      "type": "VEC2"
    },
    {
      "bufferView": 0,
      "byteOffset": 401040,
      "componentType": 5125,
      "count": 8301,
      "type": "SCALAR"
    }
  ],
  "asset": {
    "extras": {
      "author": "DeadLink (https://sketchfab.com/d43dLink)",
      "license": "CC-BY-4.0 (http://creativecommons.org/licenses/by/4.0/)",
      "source": "https://sketchfab.com/3d-models/old-wooden-penthouse-58ea919de822402880881a2e2c5e85e3",
      "title": "Old wooden penthouse"
    },
    "generator": "Sketchfab-15.34.0",
    "version": "2.0"
  },
  "bufferViews": [
    {
      "buffer": 0,
      "byteLength": 434244,
      "name": "floatBufferViews",
      "target": 34963
    },
    {
      "buffer": 0,
      "byteLength": 410664,
      "byteOffset": 434244,
      "byteStride": 8,
      "name": "floatBufferViews",
      "target": 34962
    },
    {
      "buffer": 0,
      "byteLength": 1231992,
      "byteOffset": 844908,
      "byteStride": 12,
      "name": "floatBufferViews",
      "target": 34962
    },
    {
      "buffer": 0,
      "byteLength": 821328,
      "byteOffset": 2076900,
      "byteStride": 16,
      "name": "floatBufferViews",
      "target": 34962
    }
  ],
  "buffers": [
    {
      "byteLength": 2898228,
      "uri": "scene.bin"
    }
  ],
  "images": [
    {
      "uri": "textures/wall_1002_baseColor.jpeg"
    },
    {
      "uri": "textures/wall_1002_metallicRoughness.png"
    },
    {
      "uri": "textures/wall_1002_normal.png"
    },
    {
      "uri": "textures/wall_1001_baseColor.jpeg"
    },
    {
      "uri": "textures/wall_1001_metallicRoughness.png"
    },
    {
      "uri": "textures/wall_1001_normal.png"
    },
    {
      "uri": "textures/inter_1001_baseColor.jpeg"
    },
    {
      "uri": "textures/inter_1001_metallicRoughness.png"
    },
    {
      "uri": "textures/inter_1001_normal.png"
    },
    {
      "uri": "textures/inter_1002_baseColor.jpeg"
    },
    {
      "uri": "textures/inter_1002_metallicRoughness.png"
    },
    {
      "uri": "textures/inter_1002_normal.png"
    },
    {
      "uri": "textures/roaf_1001_baseColor.jpeg"
    },
    {
      "uri": "textures/roaf_1001_metallicRoughness.png"
    },
    {
      "uri": "textures/roaf_1001_normal.png"
    },
    {
      "uri": "textures/window_1001_baseColor.png"
    },
    {
      "uri": "textures/window_1001_metallicRoughness.png"
    },
    {
      "uri": "textures/window_1001_normal.png"
    }
  ],
  "materials": [
    {
      "doubleSided": true,
      "name": "wall_1002",
      "normalTexture": {
        "index": 2,
        "scale": 0.2
      },
      "occlusionTexture": {
        "index": 1
      },
      "pbrMetallicRoughness": {
        "baseColorTexture": {
          "index": 0
        },
        "metallicRoughnessTexture": {
          "index": 1
        }
      }
    },
    {
      "doubleSided": true,
      "name": "wall_1001",
      "normalTexture": {
        "index": 5,
        "scale": 0.19961965598371345
      },
      "occlusionTexture": {
        "index": 4
      },
      "pbrMetallicRoughness": {
        "baseColorTexture": {
          "index": 3
        },
        "metallicRoughnessTexture": {
          "index": 4
        }
      }
    },
    {
      "doubleSided": true,
      "name": "inter_1001",
      "normalTexture": {
        "index": 8
      },
      "occlusionTexture": {
        "index": 7
      },
      "pbrMetallicRoughness": {
        "baseColorTexture": {
          "index": 6
        },
        "metallicRoughnessTexture": {
          "index": 7
        }
      }
    },
    {
      "doubleSided": true,
      "name": "inter_1002",
      "normalTexture": {
        "index": 11
      },
      "occlusionTexture": {
        "index": 10
      },
      "pbrMetallicRoughness": {
        "baseColorTexture": {
          "index": 9
        },
        "metallicRoughnessTexture": {
          "index": 10
        }
      }
    },
    {
      "doubleSided": true,
      "name": "roaf_1001",
      "normalTexture": {
        "index": 14
      },
      "occlusionTexture": {
        "index": 13
      },
      "pbrMetallicRoughness": {
        "baseColorTexture": {
          "index": 12
        },
        "metallicRoughnessTexture": {
          "index": 13
        }
      }
    },
    {
      "alphaMode": "BLEND",
      "doubleSided": true,
      "name": "window_1001",
      "normalTexture": {
        "index": 17,
        "scale": 0.4739062061903426
      },
      "occlusionTexture": {
        "index": 16
      },
      "pbrMetallicRoughness": {
        "baseColorTexture": {
          "index": 15
        },
        "metallicRoughnessTexture": {
          "index": 16
        }
      }
    }
  ],
  "meshes": [
    {
      "name": "defaultMaterial",
      "primitives": [
        {
          "attributes": {
            "NORMAL": 1,
            "POSITION": 0,
            "TANGENT": 2,
            "TEXCOORD_0": 3
          },
          "indices": 4,
          "material": 5,
          "mode": 4
        }
      ]
    },
    {
      "name": "defaultMaterial",
      "primitives": [
        {
          "attributes": {
            "NORMAL": 6,
            "POSITION": 5,
            "TANGENT": 7,
            "TEXCOORD_0": 8
          },
          "indices": 9,
          "material": 4,
          "mode": 4
        }
      ]
    },
    {
      "name": "defaultMaterial",
      "primitives": [
        {
          "attributes": {
            "NORMAL": 11,
            "POSITION": 10,
            "TANGENT": 12,
            "TEXCOORD_0": 13
          },
          "indices": 14,
          "material": 2,
          "mode": 4
        }
      ]
    },
    {
      "name": "defaultMaterial",
      "primitives": [
        {
          "attributes": {
            "NORMAL": 16,
            "POSITION": 15,
            "TANGENT": 17,
            "TEXCOORD_0": 18
          },
          "indices": 19,
          "material": 3,
          "mode": 4
        }
      ]
    },
    {
      "name": "defaultMaterial",
      "primitives": [
        {
          "attributes": {
            "NORMAL": 21,
            "POSITION": 20,
            "TANGENT": 22,
            "TEXCOORD_0": 23
          },
          "indices": 24,
          "material": 0,
          "mode": 4
        }
      ]
    },
    {
      "name": "defaultMaterial",
      "primitives": [
        {
          "attributes": {
            "NORMAL": 26,
            "POSITION": 25,
            "TANGENT": 27,
            "TEXCOORD_0": 28
          },
          "indices": 29,
          "material": 1,
          "mode": 4
        }
      ]
    }
  ],
  "nodes": [
    {
      "children": [
        1
      ],
      "matrix": [
        1.0,
        0.0,
        0.0,
        0.0,
        0.0,
        2.220446049250313e-16,
        -1.0,
        0.0,
        0.0,
        1.0,
        2.220446049250313e-16,
        0.0,
        0.0,
        0.0,
        0.0,
        1.0
      ],
      "name": "Sketchfab_model"
    },
    {
      "children": [
        2,
        4,
        6,
        9
      ],
      "matrix": [
        1.0,
        0.0,
        0.0,
        0.0,
        0.0,
        -4.371139006309477e-08,
        0.999999999999999,
        0.0,
        0.0,
        -0.999999999999999,
        -4.371139006309477e-08,
        0.0,
        0.0,
        0.0,
        0.0,
        1.0
      ],
      "name": "Collada visual scene group"
    },
    {
      "children": [
        3
      ],
      "name": "window"
    },
    {
      "mesh": 0,
      "name": "defaultMaterial"
    },
    {
      "children": [
        5
      ],
      "name": "roaf"
    },
    {
      "mesh": 1,
      "name": "defaultMaterial"
    },
    {
      "children": [
        7,
        8
      ],
      "name": "inter"
    },
    {
      "mesh": 2,
      "name": "defaultMaterial"
    },
    {
      "mesh": 3,
      "name": "defaultMaterial"
    },
    {
      "children": [
        10,
        11
      ],
      "name": "wall"
    },
    {
      "mesh": 4,
      "name": "defaultMaterial"
    },
    {
      "mesh": 5,
      "name": "defaultMaterial"
    }
  ],
  "samplers": [
    {
      "magFilter": 9729,
      "minFilter": 9987,
      "wrapS": 10497,
      "wrapT": 10497
    }
  ],
  "scene": 0,
  "scenes": [
    {
      "name": "Sketchfab_Scene",
      "nodes": [
        0
      ]
    }
  ],
  "textures": [
    {
      "sampler": 0,
      "source": 0
    },
    {
      "sampler": 0,
      "source": 1
    },
    {
      "sampler": 0,
      "source": 2
    },
    {
      "sampler": 0,
      "source": 3
    },
    {
      "sampler": 0,
      "source": 4
    },
    {
      "sampler": 0,
      "source": 5
    },
    {
      "sampler": 0,
      "source": 6
    },
    {
      "sampler": 0,
      "source": 7
    },
    {
      "sampler": 0,
      "source": 8
    },
    {
      "sampler": 0,
      "source": 9
    },
    {
      "sampler": 0,
      "source": 10
    },
    {
      "sampler": 0,
      "source": 11
    },
    {
      "sampler": 0,
      "source": 12
    },
    {
      "sampler": 0,
      "source": 13
    },
    {
      "sampler": 0,
      "source": 14
    },
    {
      "sampler": 0,
      "source": 15
    },
    {
      "sampler": 0,
      "source": 16
    },
    {
      "sampler": 0,
      "source": 17
    }
  ]
}
